<mxfile host="65bd71144e">
    <diagram id="CqI6CnuO86V-KjurRGcA" name="Arquitetura">
        <mxGraphModel dx="1391" dy="1137" grid="1" gridSize="10" guides="1" tooltips="1" connect="1" arrows="1" fold="1" page="1" pageScale="1" pageWidth="827" pageHeight="1169" math="0" shadow="0">
            <root>
                <mxCell id="0"/>
                <mxCell id="1" parent="0"/>
                <mxCell id="41" value="" style="group;shadow=1;" parent="1" vertex="1" connectable="0">
                    <mxGeometry x="230" y="100" width="980" height="390" as="geometry"/>
                </mxCell>
                <mxCell id="2" value="&lt;font style=&quot;font-size: 18px&quot;&gt;user-service&lt;/font&gt;" style="rounded=0;whiteSpace=wrap;html=1;shadow=1;" parent="41" vertex="1">
                    <mxGeometry x="520" y="130" width="120" height="60" as="geometry"/>
                </mxCell>
                <mxCell id="3" value="authentication-service" style="rounded=0;whiteSpace=wrap;html=1;fontSize=18;shadow=1;" parent="41" vertex="1">
                    <mxGeometry x="480" width="200" height="60" as="geometry"/>
                </mxCell>
                <mxCell id="4" value="comic-service" style="rounded=0;whiteSpace=wrap;html=1;fontSize=18;shadow=1;" parent="41" vertex="1">
                    <mxGeometry x="250" y="70" width="130" height="60" as="geometry"/>
                </mxCell>
                <mxCell id="40" style="edgeStyle=none;html=1;entryX=1;entryY=0.5;entryDx=0;entryDy=0;fontSize=18;shadow=1;" parent="41" source="2" target="4" edge="1">
                    <mxGeometry relative="1" as="geometry">
                        <Array as="points">
                            <mxPoint x="450" y="160"/>
                            <mxPoint x="450" y="100"/>
                        </Array>
                    </mxGeometry>
                </mxCell>
                <mxCell id="5" value="anime-service" style="rounded=0;whiteSpace=wrap;html=1;fontSize=18;shadow=1;" parent="41" vertex="1">
                    <mxGeometry x="250" y="190" width="130" height="60" as="geometry"/>
                </mxCell>
                <mxCell id="35" style="edgeStyle=none;html=1;entryX=1;entryY=0.5;entryDx=0;entryDy=0;fontSize=18;exitX=0;exitY=0.5;exitDx=0;exitDy=0;shadow=1;" parent="41" source="2" target="5" edge="1">
                    <mxGeometry relative="1" as="geometry">
                        <Array as="points">
                            <mxPoint x="450" y="160"/>
                            <mxPoint x="450" y="220"/>
                        </Array>
                    </mxGeometry>
                </mxCell>
                <mxCell id="36" style="edgeStyle=none;html=1;entryX=1;entryY=0.5;entryDx=0;entryDy=0;fontSize=18;shadow=1;" parent="41" source="6" target="2" edge="1">
                    <mxGeometry relative="1" as="geometry"/>
                </mxCell>
                <mxCell id="6" value="notification-service" style="rounded=0;whiteSpace=wrap;html=1;fontSize=18;shadow=1;" parent="41" vertex="1">
                    <mxGeometry x="810" y="130" width="170" height="60" as="geometry"/>
                </mxCell>
                <mxCell id="37" style="edgeStyle=none;html=1;entryX=0.5;entryY=1;entryDx=0;entryDy=0;fontSize=18;shadow=1;" parent="41" source="7" target="2" edge="1">
                    <mxGeometry relative="1" as="geometry"/>
                </mxCell>
                <mxCell id="7" value="recommendation-service" style="rounded=0;whiteSpace=wrap;html=1;fontSize=18;shadow=1;" parent="41" vertex="1">
                    <mxGeometry x="470" y="330" width="220" height="60" as="geometry"/>
                </mxCell>
                <mxCell id="8" value="mal-service" style="rounded=0;whiteSpace=wrap;html=1;fontSize=18;shadow=1;" parent="41" vertex="1">
                    <mxGeometry x="50" y="130" width="100" height="60" as="geometry"/>
                </mxCell>
                <mxCell id="30" style="edgeStyle=none;html=1;entryX=0.5;entryY=0;entryDx=0;entryDy=0;fontSize=18;shadow=1;" parent="41" source="4" target="8" edge="1">
                    <mxGeometry relative="1" as="geometry">
                        <Array as="points">
                            <mxPoint x="100" y="100"/>
                        </Array>
                    </mxGeometry>
                </mxCell>
                <mxCell id="31" style="edgeStyle=none;html=1;entryX=0.5;entryY=1;entryDx=0;entryDy=0;fontSize=18;shadow=1;" parent="41" source="5" target="8" edge="1">
                    <mxGeometry relative="1" as="geometry">
                        <Array as="points">
                            <mxPoint x="100" y="220"/>
                        </Array>
                    </mxGeometry>
                </mxCell>
                <mxCell id="32" value="" style="endArrow=classic;startArrow=classic;html=1;fontSize=18;entryX=0;entryY=0.5;entryDx=0;entryDy=0;exitX=0;exitY=0.5;exitDx=0;exitDy=0;shadow=1;" parent="41" source="8" target="3" edge="1">
                    <mxGeometry width="50" height="50" relative="1" as="geometry">
                        <mxPoint x="480" y="360" as="sourcePoint"/>
                        <mxPoint x="530" y="310" as="targetPoint"/>
                        <Array as="points">
                            <mxPoint y="160"/>
                            <mxPoint y="30"/>
                        </Array>
                    </mxGeometry>
                </mxCell>
                <mxCell id="38" style="edgeStyle=none;html=1;fontSize=18;entryX=0.5;entryY=1;entryDx=0;entryDy=0;shadow=1;" parent="41" source="7" target="8" edge="1">
                    <mxGeometry relative="1" as="geometry">
                        <mxPoint x="100" y="200" as="targetPoint"/>
                        <Array as="points">
                            <mxPoint x="100" y="360"/>
                        </Array>
                    </mxGeometry>
                </mxCell>
                <mxCell id="33" value="" style="endArrow=classic;startArrow=classic;html=1;fontSize=18;exitX=0.5;exitY=1;exitDx=0;exitDy=0;entryX=0.5;entryY=0;entryDx=0;entryDy=0;shadow=1;" parent="41" source="3" target="2" edge="1">
                    <mxGeometry width="50" height="50" relative="1" as="geometry">
                        <mxPoint x="480" y="360" as="sourcePoint"/>
                        <mxPoint x="530" y="310" as="targetPoint"/>
                    </mxGeometry>
                </mxCell>
            </root>
        </mxGraphModel>
    </diagram>
</mxfile>